<?xml version="1.0" encoding="UTF-8" standalone="no"?>
<svg
   xmlns:dc="http://purl.org/dc/elements/1.1/"
   xmlns:cc="http://creativecommons.org/ns#"
   xmlns:rdf="http://www.w3.org/1999/02/22-rdf-syntax-ns#"
   xmlns:svg="http://www.w3.org/2000/svg"
   xmlns="http://www.w3.org/2000/svg"
   xmlns:sodipodi="http://sodipodi.sourceforge.net/DTD/sodipodi-0.dtd"
   xmlns:inkscape="http://www.inkscape.org/namespaces/inkscape"
   width="500"
   height="500"
   fill="none"
   stroke-width="1px"
   version="1.1"
   id="svg11"
   sodipodi:docname="outputSector.svg"
   inkscape:version="0.92.4 (5da689c313, 2019-01-14)">
  <metadata
     id="metadata17">
    <rdf:RDF>
      <cc:Work
         rdf:about="">
        <dc:format>image/svg+xml</dc:format>
        <dc:type
           rdf:resource="http://purl.org/dc/dcmitype/StillImage" />
        <dc:title />
      </cc:Work>
    </rdf:RDF>
  </metadata>
  <defs
     id="defs15" />
  <sodipodi:namedview
     pagecolor="#ffffff"
     bordercolor="#666666"
     borderopacity="1"
     objecttolerance="10"
     gridtolerance="10"
     guidetolerance="10"
     inkscape:pageopacity="0"
     inkscape:pageshadow="2"
     inkscape:window-width="1366"
     inkscape:window-height="715"
     id="namedview13"
     showgrid="false"
     inkscape:zoom="0.6675088"
     inkscape:cx="-95.975144"
     inkscape:cy="266.08114"
     inkscape:window-x="-8"
     inkscape:window-y="-8"
     inkscape:window-maximized="1"
     inkscape:current-layer="arc" />
  <g
     id="polygon" />
  <g
     id="innerArc" />
  <g
     id="arc">
    <path
       d="M 250,250 H 400 A 150,150 0 0 1 175,379.90381 Z"
       id="path4"
       inkscape:connector-curvature="0"
       style="stroke:#000000" />
    <path
       d="M 250,250 175,120.09619 A 150,150 0 0 1 400,250 Z"
       id="path6"
       inkscape:connector-curvature="0"
       style="stroke:#000000" />
    <path
       d="m 250,250 -75,129.90381 a 150,150 0 0 1 0,-259.80762 z"
       id="path8"
       inkscape:connector-curvature="0"
       style="stroke:#000000" />
    <path
       id="path860"
       d="m -296.08341,114.07025 c 0,1.309 0.72202,2.62051 2.07426,4.3427 1.35224,1.7222 3.33274,3.85972 5.68085,6.74751 2.34811,2.88779 5.06023,6.52937 7.749,11.12463 2.68877,4.59526 5.34948,10.14605 7.53102,16.6764 2.18155,6.53034 3.87885,14.04014 4.65122,22.36422 0.77236,8.32407 0.61512,17.46036 -0.82809,27.07087 -1.44321,9.61052 -4.17592,19.69155 -8.40785,29.77608 -4.23193,10.08453 -9.96493,20.16774 -17.22107,29.71832 -7.25613,9.55057 -16.03527,18.5633 -26.15854,26.51844 -10.12326,7.95514 -21.58856,14.8479 -34.03272,20.24573 -12.44417,5.39782 -25.86344,9.29707 -39.75474,11.41635 -13.8913,2.11928 -28.24974,2.45663 -42.4978,0.92439 -14.24805,-1.53223 -28.38044,-4.93403 -41.82209,-10.08461 -13.44165,-5.15059 -26.18767,-12.04794 -37.74227,-20.37829 -11.5546,-8.33034 -21.91401,-18.08997 -30.72705,-28.81536 -8.81303,-10.72539 -16.07762,-22.41171 -21.63122,-34.5103 -5.5536,-12.09858 -9.39614,-24.60421 -11.5701,-36.95936 -2.17395,-12.35516 -2.68122,-24.55498 -1.75556,-36.10958 0.92567,-11.5546 3.28067,-22.46021 6.68152,-32.35974 3.40085,-9.89953 7.84283,-18.79088 12.85558,-26.493947 5.01275,-7.70307 10.59114,-14.21773 16.25254,-19.5576 5.66141,-5.33986 11.40106,-9.50677 16.79889,-12.69493 5.39783,-3.18816 10.45017,-5.40109 14.86319,-6.97292 4.41302,-1.57183 8.18471,-2.5072 11.1903,-3.21835 3.00559,-0.71115 5.24503,-1.20311 6.77813,-1.89292 1.53309,-0.6898 2.36175,-1.58211 2.71626,-3.02532 0.35451,-1.4432 0.23844,-3.44086 0.0111,-6.21061 -0.22736,-2.76976 -0.56133,-6.3135 -0.57597,-10.67694 -0.0146,-4.36344 0.29511,-9.5465 1.34825,-15.40917 1.05314,-5.86267 2.85431,-12.40291 5.7421,-19.3108 2.88779,-6.9079 6.86572,-14.17976 12.13003,-21.37896 5.26432,-7.199196 11.81687,-14.320945 19.67086,-20.86593 7.85398,-6.544985 17.00926,-12.508054 27.2829,-17.402413 10.27363,-4.894359 21.66351,-8.715267 33.8073,-11.06338 12.1438,-2.348112 25.03775,-3.219823 38.18444,-2.366471 13.14669,0.853353 26.54126,3.433688 39.61659,7.797126 13.0753,4.363438 25.82615,10.509912 37.69234,18.288981 11.86619,7.779069 22.84289,17.18868 32.45341,27.887892 9.61051,10.699215 17.85113,22.68429499 24.39354,35.467655 6.54241,12.78336 11.38458,26.36014 14.39017,40.16126 3.00559,13.80112 4.17455,27.82131 3.57825,41.48669 -0.59629,13.665387 -2.9559,26.971087 -6.81408,39.415257 -3.85818,12.44416 -9.2113,24.02303 -15.64345,34.3722 -6.43215,10.34918 -13.93858,19.46658 -22.0158,27.16965 -8.07722,7.70307 -16.72006,13.99169 -25.41277,18.8819 -8.6927,4.89022 -17.43047,8.38388 -25.76081,10.68247 -8.33035,2.29859 -16.24957,3.40564 -23.43284,3.66724 -7.18326,0.2616 -13.62854,-0.31759 -19.18214,-1.30898 -5.5536,-0.99138 -10.21545,-2.38988 -14.01917,-3.75805 -3.80372,-1.36816 -6.75119,-2.70131 -9.04978,-3.62697 -2.29859,-0.92566 -3.95184,-1.44026 -5.29993,-1.29899 -1.34809,0.14127 -2.39567,0.94034 -3.55375,2.47257 -1.15809,1.53224 -2.43171,3.79762 -4.22945,6.68766 -1.79775,2.89003 -4.12425,6.40274 -7.31241,10.26092 -3.18816,3.85818 -7.2415,8.05819 -12.35545,12.19661 -5.11395,4.13841 -11.29036,8.2105 -18.54649,11.7499 -7.25614,3.53939 -15.59187,6.541 -24.83312,8.55002 -9.24124,2.00902 -19.38591,3.02077 -30.08512,2.66626 -10.69921,-0.35451 -21.94923,-2.07884 -33.27042,-5.3936 -11.32119,-3.31476 -22.70871,-8.22183 -33.61713,-14.75217 -10.90843,-6.53035 -21.33254,-14.68388 -30.73732,-24.28845 -9.40479,-9.60457 -17.78544,-20.65811 -24.69334,-32.8019 -6.90789,-12.1438 -12.33935,-25.37409 -15.99642,-39.18984 -3.65708,-13.81575 -5.53778,-28.21208 -5.53778,-42.61105 0,-14.398967 1.8807,-28.795297 5.53778,-42.611047 3.65707,-13.81575 9.08853,-27.04604 15.99642,-39.18984 6.9079,-12.14379 15.28855,-23.19733 24.69334,-32.80190001 9.40478,-9.60456999 19.82889,-17.75809999 30.73732,-24.28844699 10.90842,-6.530347 22.29594,-11.437413 33.61713,-14.752172 11.32119,-3.31476 22.57121,-5.039092 33.27042,-5.393603 10.69921,-0.35451 20.84388,0.657239 30.08512,2.666263 9.24125,2.009024 17.57698,5.010628 24.83312,8.550024 7.25613,3.539396 13.43254,7.611481 18.54649,11.749896 5.11395,4.138419 9.16729,8.338429 12.35545,12.196609 3.18816,3.85818 5.51466,7.37089 7.31241,10.26091999 1.79774,2.89004001 3.07136,5.15542001 4.22945,6.68766001 1.15808,1.53223 2.20566,2.3313 3.55375,2.47257 1.34809,0.14127 3.00134,-0.37333 5.29993,-1.29899 2.29859,-0.92566 5.24606,-2.25881 9.04978,-3.62697 3.80372,-1.36817 8.46557,-2.76667 14.01917,-3.75805001 5.5536,-0.99139 11.99888,-1.57058 19.18214,-1.30898 7.18327,0.2616 15.10249,1.36865 23.43284,3.66724001 8.33034,2.29859 17.06811,5.79225 25.76081,10.68247 8.69271,4.89021 17.33555,11.17883 25.41277,18.8819 8.07722,7.70307 15.58365,16.82047 22.0158,27.16965 6.43215,10.34917 11.78527,21.92804 15.64345,34.3722 3.85818,12.444167 6.21779,25.749867 6.81408,39.415257 0.5963,13.66538 -0.57266,27.68557 -3.57825,41.48669 -3.00559,13.80112 -7.84776,27.3779 -14.39017,40.16126 -6.54241,12.78336 -14.78303,24.76844 -24.39354,35.46765 -9.61052,10.69922 -20.58722,20.10883 -32.45341,27.8879 -11.86619,7.77907 -24.61704,13.92554 -37.69237,18.28898 -13.07533,4.36344 -26.4699,6.94377 -39.61659,7.79712 -13.14669,0.85336 -26.04064,-0.0183 -38.18444,-2.36647 -12.14379,-2.34811 -23.53367,-6.16902 -33.8073,-11.06338 -10.27364,-4.89436 -19.42892,-10.85743 -27.2829,-17.40241 -7.85399,-6.54498 -14.40654,-13.66673 -19.67086,-20.86593 -5.26431,-7.1992 -9.24224,-14.47106 -12.13003,-21.37896 -2.88779,-6.90789 -4.68896,-13.44813 -5.7421,-19.3108 -1.05314,-5.86267 -1.36289,-11.04573 -1.34825,-15.40917 0.0146,-4.36344 0.34861,-7.90718 0.57597,-10.67694 0.22737,-2.76975 0.34344,-4.76741 -0.0111,-6.21061 -0.35451,-1.44321 -1.18317,-2.33552 -2.71626,-3.02532 -1.5331,-0.68981 -3.77254,-1.18177 -6.77813,-1.89292 -3.00559,-0.71115 -6.77728,-1.64652 -11.1903,-3.21835 -4.41302,-1.57183 -9.46536,-3.78476 -14.86319,-6.97292 -5.39783,-3.18816 -11.13748,-7.35507 -16.79889,-12.69493 -5.6614,-5.33987 -11.23979,-11.85453 -16.25254,-19.5576 -5.01275,-7.70307 -9.45473,-16.59442 -12.85558,-26.49395 -3.40085,-9.899527 -5.75585,-20.805137 -6.68152,-32.359737 -0.92566,-11.5546 -0.41839,-23.75442 1.75556,-36.10958 2.17396,-12.35515 6.0165,-24.86078 11.5701,-36.95936001 5.5536,-12.09858999 12.81819,-23.78490799 21.63122,-34.51029699 8.81304,-10.725388 19.17245,-20.48502 30.72705,-28.815364 11.5546,-8.330345 24.30062,-15.227702 37.74227,-20.378286 13.44165,-5.150584 27.57404,-8.552382 41.82209,-10.084618 14.24806,-1.532236 28.6065,-1.194885 42.4978,0.924395 13.8913,2.119281 27.31057,6.018527 39.75474,11.416355 12.44416,5.397828 23.90946,12.290584 34.03272,20.245723 10.12327,7.955139 18.90241,16.967873 26.15854,26.518447 7.25614,9.550573 12.98914,19.633785 17.22107,29.718315 4.23193,10.08453 6.96464,20.16556 8.40785,29.77608 1.44321,9.61051 1.60045,18.7468 0.82809,27.07087 -0.77237,8.32408 -2.46967,15.83388 -4.65122,22.36422 -2.18154,6.53035 -4.84225,12.08114 -7.53102,16.6764 -2.68877,4.59526 -5.40089,8.236837 -7.749,11.124627 -2.34811,2.88779 -4.32861,5.02531 -5.68085,6.74751 -1.35224,1.72219 -2.07426,3.0337 -2.07426,4.3427 z"
       style="fill:none;stroke:#000000;stroke-width:1"
       inkscape:connector-curvature="0" />
  </g>
</svg>
